<svg t="1651728193554" class="icon" viewBox="0 0 1024 1024" version="1.1" xmlns="http://www.w3.org/2000/svg" p-id="22541" width="400" height="400"><path d="M1014.244073 338.571636c-10.556509-6.832873-13.1072-9.122909-29.360873-18.525091-5.827491-3.369891-21.634327-10.891636-24.520145-22.434909-2.569309-11.971491-32.9728-26.363345-47.588073-28.318254-14.875927-1.973527-14.913164-0.446836-20.833746 2.513454-5.957818 2.978909-73.132218-44.683636-84.210036-39.619491s9.923491 50.529745 43.603782 52.503273c33.661673 1.954909 21.783273 1.954909 21.783273 1.954909s-47.792873 37.217745-73.560437 40.196655-53.638982-27.685236-76.111127-46.731637c-19.604945-16.607418-86.500073-95.138909-182.420946-93.947345-107.817891 1.340509-159.408873 87.933673-174.973672 106.942836-26.642618 32.525964-115.9168 148.777891-173.018764 162.629819-60.062255 14.559418-108.637091 3.816727-140.362473-12.027346-31.706764-15.862691-38.614109-19.809745-7.931345 14.857309 0 0 75.291927 51.497891 177.300945 25.767564 102.046255-25.767564 162.778764-104.205964 171.678255-108.171637s17.501091 13.069964 20.498618 19.009164c2.960291 5.920582 13.237527 21.522618 42.207418 43.250036 43.864436 32.898327-84.321745 154.940509-77.917091 177.933964 9.029818 32.377018 10.128291 93.3888 1.340509 142.187055-29.398109 31.1296-19.213964 54.514036-20.740654 58.814836-6.144 17.165964 18.171345 18.041018 40.885527-22.472145 13.982255-24.929745 4.971055-111.038836 19.679418-166.111419 16.7936-62.854982 106.738036-94.6176 138.426182-126.305745 20.759273-20.759273 31.669527-49.729164 50.176-57.083346 17.277673 15.5648 88.119855 11.375709 94.208 20.126255 8.918109 12.865164 9.904873 65.387055-10.891636 80.244364s-12.883782 13.870545-8.918109 14.857309c3.947055 1.005382-1.024 16.830836 21.783272-1.973528 22.788655-18.822982 37.627345-55.482182 46.545455-78.252218 8.918109-22.788655 32.470109-21.336436 55.463564-35.858618 32.879709-20.777891 55.947636-77.972945 77.265454-78.047418 2.885818 0 19.809745 8.918109 40.624873 4.971054 20.796509-3.984291 24.762182-13.870545 46.564073-9.92349 7.112145 1.303273 7.037673 1.880436 13.684363 3.8912 13.702982 4.077382 43.026618-18.152727 29.640146-26.847419z" fill="#cdcdcd" p-id="22542"></path></svg>
