<?xml version="1.0" standalone="no"?>
<!DOCTYPE svg PUBLIC "-//W3C//DTD SVG 20010904//EN"
 "http://www.w3.org/TR/2001/REC-SVG-20010904/DTD/svg10.dtd">
<svg version="1.0" xmlns="http://www.w3.org/2000/svg"
 width="50.000000pt" height="50.000000pt" viewBox="0 0 50.000000 50.000000"
 preserveAspectRatio="xMidYMid meet">

<g transform="translate(0.000000,50.000000) scale(0.100000,-0.100000)"
fill="#FFFFFF" stroke="none">
<path d="M244 433 c-6 -23 -78 -55 -92 -41 -16 16 -34 -2 -28 -26 8 -29 -14
-84 -36 -89 -24 -7 -23 -28 1 -34 11 -3 24 -18 30 -34 5 -16 12 -29 15 -29 3
0 1 12 -4 26 -19 48 -14 54 45 54 63 0 68 -9 28 -54 -25 -27 -24 -27 9 3 42
38 45 36 51 -39 l4 -45 1 53 c1 28 6 52 10 52 4 0 25 -17 46 -39 l37 -38 -43
-22 c-25 -13 -33 -20 -19 -17 16 3 29 -1 38 -12 12 -16 13 -16 7 0 -8 23 5 45
16 28 10 -17 40 -5 40 15 0 8 -4 15 -9 15 -16 0 23 79 42 84 9 2 17 9 17 16 0
7 -8 14 -17 16 -23 6 -55 78 -41 92 15 15 -1 35 -23 29 -29 -8 -87 14 -92 34
-6 24 -27 25 -33 2z m26 -3 c0 -5 -4 -10 -10 -10 -5 0 -10 5 -10 10 0 6 5 10
10 10 6 0 10 -4 10 -10z m-10 -85 c0 -66 -12 -70 -61 -19 l-34 35 24 20 c13
10 34 19 47 19 22 0 24 -4 24 -55z m72 39 l30 -16 -38 -39 c-21 -21 -42 -39
-46 -39 -4 0 -8 25 -8 55 0 62 8 67 62 39z m-182 -7 c0 -7 18 -31 40 -52 22
-21 40 -43 40 -47 0 -4 -25 -8 -55 -8 -60 0 -65 6 -40 54 11 20 12 33 5 40
-13 13 -13 26 0 26 6 0 10 -6 10 -13z m240 3 c0 -5 -4 -10 -10 -10 -5 0 -10 5
-10 10 0 6 5 10 10 10 6 0 10 -4 10 -10z m-5 -50 c27 -52 21 -60 -40 -60 -30
0 -55 3 -55 7 0 7 71 83 77 83 1 0 9 -13 18 -30z m-105 -64 c0 -20 -19 -31
-32 -18 -6 6 -7 15 -4 21 10 16 36 13 36 -3z m-170 -6 c0 -5 -7 -10 -15 -10
-8 0 -15 5 -15 10 0 6 7 10 15 10 8 0 15 -4 15 -10z m330 0 c0 -5 -4 -10 -10
-10 -5 0 -10 5 -10 10 0 6 5 10 10 10 6 0 10 -4 10 -10z m-40 -23 c0 -12 -7
-33 -16 -46 l-16 -23 -39 38 c-22 21 -39 42 -39 46 0 4 25 8 55 8 51 0 55 -2
55 -23z m-10 -97 c0 -5 -4 -10 -10 -10 -5 0 -10 5 -10 10 0 6 5 10 10 10 6 0
10 -4 10 -10z"/>
<path d="M81 159 c-20 -6 -30 -14 -24 -17 7 -4 13 -28 16 -52 l4 -45 1 51 c2
42 6 53 22 57 18 5 20 0 22 -51 l2 -57 3 53 c3 44 7 52 24 52 16 0 19 -8 21
-52 l2 -53 3 48 c3 39 7 48 21 45 12 -2 19 -17 23 -48 5 -39 6 -41 7 -11 2 26
5 32 18 27 9 -3 18 -6 20 -6 2 0 5 -12 5 -27 1 -17 3 -21 6 -10 6 22 29 22 42
0 6 -10 11 -12 11 -5 0 14 40 17 40 2 0 -5 10 0 22 12 19 19 22 19 27 5 5 -13
8 -12 18 8 6 14 10 25 8 25 -1 0 -19 -7 -38 -15 -56 -23 -88 -18 -158 24 -73
44 -118 55 -168 40z"/>
</g>
</svg>
