<?xml version="1.0" standalone="no"?>
<!DOCTYPE svg PUBLIC "-//W3C//DTD SVG 20010904//EN"
 "http://www.w3.org/TR/2001/REC-SVG-20010904/DTD/svg10.dtd">
<svg version="1.0" xmlns="http://www.w3.org/2000/svg"
 width="128.000000pt" height="128.000000pt" viewBox="0 0 128.000000 128.000000"
 preserveAspectRatio="xMidYMid meet">

<g transform="translate(0.000000,128.000000) scale(0.100000,-0.100000)"
fill="#000000" stroke="none">
<path d="M538 1123 c-3 -83 -4 -88 -25 -91 -18 -3 -23 -10 -23 -33 0 -22 -5
-29 -19 -29 -17 0 -20 8 -23 47 -2 36 -7 49 -20 51 -13 2 -18 -3 -18 -17 0
-27 -16 -27 -23 -1 -3 11 -12 20 -21 20 -9 0 -16 -8 -16 -20 0 -11 -4 -20 -9
-20 -5 0 -11 9 -14 20 -3 11 -12 20 -21 20 -9 0 -16 -8 -16 -20 0 -11 -4 -20
-9 -20 -5 0 -11 9 -14 20 -3 11 -12 20 -21 20 -14 0 -16 -23 -16 -198 0 -141
-3 -201 -12 -210 -9 -9 -9 -15 0 -24 17 -17 17 -349 0 -366 -9 -9 -9 -15 0
-24 7 -7 12 -39 12 -75 l0 -62 -97 -3 c-79 -2 -98 -6 -98 -18 0 -13 74 -15
605 -15 531 0 605 2 605 15 0 12 -18 16 -87 18 l-87 3 0 470 c-1 259 -3 475
-7 480 -10 17 -34 9 -34 -11 0 -11 -5 -20 -11 -20 -6 0 -13 9 -16 20 -3 11
-12 20 -19 20 -8 0 -14 -9 -14 -20 0 -11 -5 -20 -11 -20 -6 0 -13 9 -16 20 -3
11 -12 20 -19 20 -8 0 -14 -9 -14 -20 0 -11 -7 -20 -15 -20 -8 0 -15 9 -15 20
0 11 -7 20 -15 20 -11 0 -15 -12 -15 -50 0 -47 -2 -50 -25 -50 -21 0 -25 5
-25 30 0 23 -4 30 -20 30 -18 0 -20 7 -20 74 0 41 -3 81 -6 90 -9 23 -34 20
-34 -4 0 -11 -4 -20 -9 -20 -5 0 -13 9 -16 20 -3 11 -13 20 -21 20 -8 0 -14
-9 -14 -20 0 -11 -7 -20 -15 -20 -8 0 -14 3 -14 8 3 20 -2 32 -16 32 -8 0 -15
-9 -15 -20 0 -11 -7 -20 -15 -20 -8 0 -15 9 -15 20 0 11 -7 20 -15 20 -11 0
-15 -19 -17 -87z m182 -43 c0 -47 -2 -50 -25 -50 -21 0 -25 -5 -25 -30 0 -25
-4 -30 -25 -30 -21 0 -25 5 -25 29 0 23 -5 30 -22 33 -18 2 -24 11 -26 36 -6
57 0 62 78 62 l70 0 0 -50z m-310 -223 c0 -87 -4 -137 -12 -145 -8 -8 -8 -15
2 -27 11 -13 4 -15 -58 -15 l-71 0 -3 160 -3 160 73 0 72 0 0 -133z m180 103
l0 -31 58 3 c54 3 57 4 60 31 3 23 8 27 33 27 26 0 29 -3 29 -30 0 -28 2 -30
40 -30 l40 0 0 -105 0 -105 -200 0 -200 0 0 104 0 105 38 3 c32 3 37 7 40 31
3 23 8 27 33 27 26 0 29 -3 29 -30z m440 -130 l0 -160 -76 0 c-68 0 -75 2 -64
15 10 12 10 19 2 27 -8 8 -12 58 -12 145 l0 133 75 0 75 0 0 -160z m-190 -165
c-10 -12 -10 -19 -2 -27 17 -17 17 -349 0 -366 -9 -9 -9 -15 0 -24 7 -7 12
-39 12 -75 l0 -63 -200 0 -200 0 1 285 2 285 199 0 c180 0 199 -2 188 -15z
m-430 -210 l0 -175 -70 0 -70 0 0 175 0 175 70 0 70 0 0 -175z m620 0 l0 -175
-75 0 -75 0 0 175 0 175 75 0 75 0 0 -175z m-620 -280 l0 -65 -69 0 -69 0 -4
61 c-1 33 -1 63 1 65 2 2 35 4 73 4 l68 0 0 -65z m620 0 l0 -65 -75 0 -75 0 0
65 0 65 75 0 75 0 0 -65z"/>
<path d="M327 924 c-4 -4 -7 -23 -7 -41 0 -27 4 -34 18 -31 12 2 17 13 17 37
0 33 -13 49 -28 35z"/>
<path d="M327 783 c-4 -3 -7 -21 -7 -40 0 -23 5 -33 15 -33 20 0 29 23 21 55
-6 25 -17 31 -29 18z"/>
<path d="M610 897 c-32 -16 -52 -59 -44 -91 15 -63 98 -82 140 -32 32 37 30
71 -5 107 -32 32 -53 35 -91 16z m64 -43 c9 -8 16 -22 16 -29 0 -7 -7 -21 -16
-29 -8 -9 -22 -16 -29 -16 -18 0 -45 27 -45 45 0 18 27 45 45 45 7 0 21 -7 29
-16z"/>
<path d="M947 923 c-14 -13 -7 -73 7 -73 18 0 23 15 18 52 -4 28 -12 34 -25
21z"/>
<path d="M940 750 c0 -29 4 -40 15 -40 11 0 15 11 15 40 0 29 -4 40 -15 40
-11 0 -15 -11 -15 -40z"/>
<path d="M582 602 c-9 -6 -12 -33 -10 -98 l3 -89 73 -3 73 -3 -3 98 -3 98 -60
3 c-33 1 -66 -2 -73 -6z m98 -52 c0 -16 -7 -20 -35 -20 -28 0 -35 4 -35 20 0
16 7 20 35 20 28 0 35 -4 35 -20z m0 -80 c0 -16 -7 -20 -35 -20 -28 0 -35 4
-35 20 0 16 7 20 35 20 28 0 35 -4 35 -20z"/>
<path d="M574 347 c-2 -7 -4 -52 -2 -98 l3 -84 73 -3 73 -3 -3 98 -3 98 -68 3
c-50 2 -69 -1 -73 -11z m106 -47 c0 -16 -7 -20 -35 -20 -28 0 -35 4 -35 20 0
16 7 20 35 20 28 0 35 -4 35 -20z m0 -80 c0 -16 -7 -20 -35 -20 -28 0 -35 4
-35 20 0 16 7 20 35 20 28 0 35 -4 35 -20z"/>
<path d="M320 526 c0 -38 17 -57 31 -35 14 22 6 63 -13 67 -14 3 -18 -4 -18
-32z"/>
<path d="M320 386 c0 -38 17 -57 31 -35 14 22 6 63 -13 67 -14 3 -18 -4 -18
-32z"/>
<path d="M942 523 c4 -52 28 -56 28 -4 0 30 -4 41 -16 41 -11 0 -14 -9 -12
-37z"/>
<path d="M940 386 c0 -58 25 -59 31 -1 3 22 0 31 -13 33 -14 3 -18 -4 -18 -32z"/>
</g>
</svg>
