<?xml version="1.0" standalone="no"?>
<!DOCTYPE svg PUBLIC "-//W3C//DTD SVG 20010904//EN"
 "http://www.w3.org/TR/2001/REC-SVG-20010904/DTD/svg10.dtd">
<svg version="1.0" xmlns="http://www.w3.org/2000/svg"
 width="50.000000pt" height="50.000000pt" viewBox="0 0 50.000000 50.000000"
 preserveAspectRatio="xMidYMid meet">

<g transform="translate(0.000000,50.000000) scale(0.100000,-0.100000)"
fill="#FFFFFF" stroke="none">
<path d="M113 414 l-63 -36 21 -41 c12 -23 23 -43 24 -45 2 -2 31 11 65 28 50
25 65 29 71 18 14 -21 12 -25 -57 -156 -36 -68 -63 -126 -60 -129 2 -2 33 52
68 121 34 69 65 126 68 126 3 0 34 -57 68 -126 35 -69 66 -123 68 -121 3 3
-24 61 -60 129 -69 131 -71 135 -57 156 6 11 21 7 71 -18 34 -17 63 -30 65
-28 1 2 12 22 24 45 l21 42 -66 37 c-36 20 -66 35 -68 33 -2 -2 -16 -28 -31
-56 -16 -29 -31 -53 -34 -53 -4 0 -20 25 -36 55 -17 30 -32 55 -35 55 -3 -1
-33 -17 -67 -36z m27 -39 c-51 -25 -62 -27 -70 -15 -7 11 4 22 48 45 51 28 58
30 70 16 11 -14 5 -20 -48 -46z m297 0 c1 0 -2 -7 -7 -15 -7 -12 -19 -10 -69
14 -52 25 -59 32 -50 48 9 17 13 16 67 -14 31 -17 58 -32 59 -33z m-223 0 c4
-11 -12 -24 -55 -45 -51 -26 -60 -28 -65 -15 -7 18 -11 15 46 48 52 31 66 33
74 12z m147 -12 c46 -24 58 -41 43 -56 -4 -3 -33 7 -65 23 -42 22 -57 34 -53
45 8 21 19 19 75 -12z"/>
</g>
</svg>
