<?xml version="1.0" standalone="no"?>
<!DOCTYPE svg PUBLIC "-//W3C//DTD SVG 20010904//EN"
 "http://www.w3.org/TR/2001/REC-SVG-20010904/DTD/svg10.dtd">
<svg version="1.0" xmlns="http://www.w3.org/2000/svg"
 width="128.000000pt" height="128.000000pt" viewBox="0 0 128.000000 128.000000"
 preserveAspectRatio="xMidYMid meet">

<g transform="translate(0.000000,128.000000) scale(0.100000,-0.100000)"
fill="#000000" stroke="none">
<path d="M933 1243 c-8 -21 -20 -74 -25 -118 -13 -112 -20 -116 -96 -53 -52
42 -62 55 -57 72 25 76 15 99 -37 89 -16 -3 -34 0 -43 7 -31 25 -120 -18 -155
-76 -22 -34 -61 -47 -75 -24 -3 6 -17 10 -31 10 -26 0 -104 -70 -104 -94 0 -8
-10 -16 -22 -18 -15 -2 -24 -13 -31 -38 -12 -49 -29 -64 -95 -89 -133 -49
-161 -85 -158 -202 2 -65 7 -83 24 -102 14 -15 22 -36 22 -59 0 -29 6 -41 30
-58 27 -19 30 -26 30 -79 0 -31 5 -62 12 -69 20 -20 61 -13 107 18 27 19 57
30 78 30 44 0 89 23 96 50 4 15 13 20 39 20 18 0 53 9 77 20 24 11 51 20 61
20 24 0 77 -45 86 -73 7 -25 33 -57 46 -57 4 0 16 9 25 20 22 25 33 26 26 1
-3 -11 4 -27 15 -37 11 -11 23 -30 27 -44 10 -35 35 -60 59 -60 12 0 27 -4 35
-9 9 -6 23 -5 38 2 18 8 27 7 41 -6 22 -20 43 -22 59 -6 7 7 29 15 49 18 34 5
41 12 68 66 17 33 48 83 68 111 39 53 58 112 57 179 l-1 40 -24 -50 c-13 -27
-24 -59 -24 -70 0 -11 -21 -50 -48 -86 -26 -36 -55 -83 -65 -105 -16 -34 -25
-42 -64 -52 -31 -9 -49 -9 -58 -2 -6 5 -38 9 -69 7 -62 -2 -86 14 -86 58 0 11
-9 26 -21 33 -16 10 -19 19 -14 39 13 52 -39 71 -74 27 l-20 -26 -14 35 c-30
70 -105 102 -173 71 -21 -9 -61 -20 -89 -23 -42 -5 -52 -11 -63 -33 -13 -27
-20 -30 -92 -43 -19 -3 -52 -17 -72 -30 -21 -14 -42 -25 -48 -25 -5 0 -10 24
-10 55 0 48 -4 58 -30 82 -21 18 -30 36 -30 57 0 19 -10 40 -26 57 -21 22 -24
30 -15 47 8 14 8 29 1 47 -5 14 -10 35 -10 45 0 35 52 79 130 111 85 34 120
62 120 96 0 16 8 27 25 33 13 5 27 20 31 34 3 13 19 36 35 52 25 24 32 26 54
16 52 -24 81 -16 112 31 31 46 91 83 107 67 6 -6 25 -10 43 -10 l33 0 -13 -32
c-8 -18 -12 -39 -10 -45 7 -19 152 -133 169 -133 34 0 62 49 69 123 9 88 23
132 24 74 1 -32 9 -46 46 -83 25 -24 45 -52 45 -63 0 -16 18 -31 36 -31 2 0 4
12 4 26 0 28 -35 94 -50 94 -21 0 -40 34 -40 70 0 91 -47 123 -77 53z"/>
<path d="M935 946 c-60 -28 -87 -56 -114 -116 -23 -50 -26 -97 -11 -150 15
-49 203 -345 220 -345 17 0 203 294 219 346 17 55 13 99 -13 154 -28 60 -56
87 -116 114 -60 27 -123 26 -185 -3z m170 -35 c77 -35 123 -116 111 -195 -7
-38 -32 -84 -144 -259 l-43 -69 -91 146 c-96 156 -109 196 -88 260 25 76 104
136 180 136 19 0 53 -9 75 -19z"/>
<path d="M985 851 c-40 -18 -60 -51 -60 -102 0 -40 5 -54 28 -76 23 -23 36
-28 77 -28 41 0 54 5 77 28 23 23 28 36 28 77 0 40 -5 55 -26 76 -28 28 -89
40 -124 25z m92 -53 c29 -27 29 -65 1 -95 -27 -29 -65 -29 -95 -1 -29 27 -29
65 -1 95 27 29 65 29 95 1z"/>
<path d="M925 137 c-4 -14 -4 -36 0 -48 9 -27 75 -89 95 -89 25 0 100 79 100
105 0 34 -22 45 -86 43 -33 -1 -69 2 -81 6 -18 7 -23 4 -28 -17z m155 -36 c0
-4 -13 -20 -30 -36 l-30 -29 -30 29 c-16 16 -30 31 -30 34 0 3 27 7 60 8 33 1
60 -1 60 -6z"/>
</g>
</svg>
