<svg t="1651641741073" class="icon" viewBox="0 0 1024 1024" version="1.1" xmlns="http://www.w3.org/2000/svg" p-id="12788" width="400" height="400"><path d="M785.039 887.243s-4-4-12-7-15-7-18-8-8 0-8 0-3 9 0 15 11 11 11 11l1 14 7 15 7 7-2 7s5.666 1 11.833 0 11.167 0.444 11.167 0.444l10-14.444 5 3v-7c0-3-1-5 4-10s7-13 7-13v-20h-15l-20 7zM588.039 736.243l14 6 14-6h-12z" fill="#bfcbd9" p-id="12789"></path><path d="M981.039 495.243l-12.088 16.232c-1.944-9.062-4.022-17.228-4.912-21.232-2-9-34-47-34-47l5-19s-9-8-11-11-6-6-6-6h-13l-5-10s-10-23-11-30-8-14-8-14l-14-8s-7-8-12-17-8 1-13 0-6-6-13.556-12-1.444-6-0.444-10 0-21 0-29-5-17-5-17-5-6-5-9-12-23-12-23v-23l-14-9-4-1c-4-1-5 0-5 0l-10-6c-5-3 0-14 0-14l-9-17-11-30-10-11V105.47h-4c-4 0-8 17.773-10 24.773s-4 10-4 14-1 12-1 12l-6 1s-3 11-3 17-1 50-3 65-22 43-31 43-22-14-22-14-20-16-23-19-27-14-30-19-34-22-34-22 0-7 2-14 7-12 3-13 0-15 0-15l19-12 1-15s-6-2-10-2h-30c-12 0-23-2-23-2s-26-13-36-13h-30c5 0 23 16 17 23s-35 0-35 0l-19.039 16-4.961 14-18 15 1 13 8 10-12-3-18-2-8 16-5-18s-6-11-9-11-19-5-19-5l-5 8h-18l3 10h-12l-10 6 2 14-9 6h-9s2 21-1 27-21 0-21 0l4 18-9 1-8-19-4 5-8 11c-8 11-2 11-3 14s-1 18-1 18-9 9-10 16-15 14-17 17-13 23-13 23h-34s-38 24-41 24-5-11-9-7-51 47-51 47l-3-6s-21 15-15 23 14 27 8 32-8 53-8 53c12 8 35 48 36 52s25 21 27 43 22 41 25 49-2 19-1 24 13 19 8 22-31 23-6 23 22 8 22 8l21-1s17 3 21 1 26-24 26-24 9-9 14-13 38-8 38-8l5 5s15-4 22-4 18-4 18-4v-19s27-17 39-25 12 2 21-3 24-15 49-17 37-1 37-1v-7h11l18 15h14l12.235 5 17.765 8h-7c7 0 34 34 34 34s-1 7 0 14 13 9 13 9 4-9 7-19 33-34 33-30-0.584 44.266-14 45-3 10 0 10 13-2 13-6 1-15 10.223-15 5.777 2 1.777 10 0 20 0 20h8l23 23v17s14 34 24 35 12-4 19-6 26 22 26 22l32-22v3.1l27 28.9s-6-10 0-9 18-25 30-19l40.945-9c27.945-79 74.055-112 80.055-119s24-56 33.086-68-1.086-52-0.086-66c0.555-7.77-1.662-20.466-4.088-31.768l12.088-8.116v-8.116z m-535.834 37.108l-12.24-32.846H383l-11.543 32.846h-17.119l45.704-119.994h16.577l45.705 119.994h-17.119zM566.36 483.47c0 33.93-15.39 50.895-46.169 50.895-29.489 0-44.232-16.37-44.232-49.113v-72.895h15.492v72.197c0 24.015 10.07 36.022 30.212 36.022 19.469 0 29.204-11.62 29.204-34.86v-73.359h15.493v71.113z m109.111 32.071c-12.059 11.207-27.591 16.81-46.596 16.81h-33V412.356h34.239c18.179 0 33.298 5.294 45.356 15.88 12.059 10.587 18.088 24.79 18.088 42.606 0.001 18.593-6.029 33.493-18.087 44.699zM820.039 865.243l12-6-12-6zM737.039 853.243l8.667-11h-8.667z" fill="#bfcbd9" p-id="12790"></path><path d="M408.176 427.695h-0.387c-0.569 3.615-1.215 6.404-1.938 8.366l-17.972 49.887h40.282l-18.127-49.887c-0.567-1.6-1.187-4.389-1.858-8.366zM664.122 437.455c-8.78-7.54-20.322-11.31-34.627-11.31h-18.127v92.494h17.43c15.234 0 27.125-4.157 35.673-12.473 8.547-8.314 12.82-19.959 12.82-34.937 0-14.975-4.39-26.233-13.169-33.774z" fill="#bfcbd9" p-id="12791"></path></svg>