<?xml version="1.0" standalone="no"?>
<!DOCTYPE svg PUBLIC "-//W3C//DTD SVG 20010904//EN"
 "http://www.w3.org/TR/2001/REC-SVG-20010904/DTD/svg10.dtd">
<svg version="1.0" xmlns="http://www.w3.org/2000/svg"
 width="50.000000pt" height="50.000000pt" viewBox="0 0 50.000000 50.000000"
 preserveAspectRatio="xMidYMid meet">

<g transform="translate(0.000000,50.000000) scale(0.100000,-0.100000)"
fill="#FFFFFF" stroke="none">
<path d="M218 433 c-22 -3 -28 -10 -28 -29 0 -13 -4 -24 -10 -24 -5 0 -10 -7
-10 -15 0 -12 -13 -15 -55 -15 l-55 0 0 -69 c0 -38 -3 -83 -6 -100 l-6 -31
202 0 203 0 -7 31 c-3 17 -6 62 -6 100 l0 69 -48 0 c-52 0 -82 22 -82 60 0 13
-7 20 -19 20 -11 0 -25 2 -33 3 -7 2 -25 2 -40 0z m60 -20 c-16 -2 -40 -2 -55
0 -16 2 -3 4 27 4 30 0 43 -2 28 -4z m22 -23 c0 -5 -23 -10 -51 -10 -31 0 -48
4 -44 10 3 6 26 10 51 10 24 0 44 -4 44 -10z m-113 -157 c-2 -27 -3 -5 -3 47
0 52 1 74 3 48 2 -27 2 -69 0 -95z m46 72 l3 -50 2 58 c3 76 25 73 33 -4 l6
-54 1 58 c3 95 22 66 22 -33 0 -53 -4 -90 -10 -90 -5 0 -10 9 -10 20 0 16 -7
20 -30 20 -24 0 -30 -4 -30 -21 0 -11 -4 -17 -10 -14 -11 7 -14 158 -3 168 13
13 22 -8 26 -58z m84 -72 c-2 -27 -3 -5 -3 47 0 52 1 74 3 48 2 -27 2 -69 0
-95z m-152 97 c-8 -13 -95 -13 -95 0 0 6 23 10 51 10 31 0 48 -4 44 -10z m265
0 c0 -5 -20 -10 -44 -10 -25 0 -48 5 -51 10 -4 6 13 10 44 10 28 0 51 -4 51
-10z m-260 -80 l0 -60 -50 0 -50 0 0 60 0 60 50 0 50 0 0 -60z m260 -1 l0 -60
-47 3 -48 3 -3 58 -3 57 51 0 50 0 0 -61z m-162 -41 c-3 -7 -11 -13 -18 -13
-7 0 -15 6 -17 13 -3 7 4 12 17 12 13 0 20 -5 18 -12z m172 -38 c0 -6 -70 -10
-190 -10 -120 0 -190 4 -190 10 0 6 70 10 190 10 120 0 190 -4 190 -10z"/>
<path d="M141 274 c0 -11 3 -14 6 -6 3 7 2 16 -1 19 -3 4 -6 -2 -5 -13z"/>
<path d="M351 274 c0 -11 3 -14 6 -6 3 7 2 16 -1 19 -3 4 -6 -2 -5 -13z"/>
<path d="M127 114 c-22 -12 -31 -13 -43 -3 -8 6 -17 10 -19 7 -3 -3 6 -10 19
-18 20 -10 28 -10 46 3 20 14 25 14 45 1 18 -12 28 -12 49 -3 20 10 32 10 52
0 21 -9 31 -9 49 3 20 13 25 13 45 -1 18 -13 26 -13 46 -3 13 8 22 15 19 18
-2 3 -11 -1 -19 -7 -11 -10 -21 -9 -44 3 -25 13 -32 13 -50 0 -16 -11 -26 -12
-46 -2 -20 8 -32 8 -51 0 -21 -10 -30 -9 -48 2 -19 13 -26 13 -50 0z"/>
<path d="M74 64 c24 -13 33 -14 52 -3 20 10 29 10 49 -1 21 -11 29 -11 50 0
21 11 29 11 50 0 21 -11 29 -11 50 0 20 11 29 11 49 1 19 -11 28 -10 52 3 16
8 22 15 14 16 -9 0 -21 -5 -28 -12 -9 -9 -17 -9 -36 2 -20 10 -31 10 -54 1
-24 -10 -34 -10 -51 1 -17 11 -25 11 -42 0 -17 -11 -27 -11 -51 -1 -23 9 -34
9 -54 -1 -19 -11 -27 -11 -36 -2 -7 7 -19 12 -27 12 -9 -1 -3 -8 13 -16z"/>
</g>
</svg>
