<svg t="1651727950725" class="icon" viewBox="0 0 1024 1024" version="1.1" xmlns="http://www.w3.org/2000/svg" p-id="19547" width="400" height="400"><path d="M490.666667 554.666667c58.813333 0 106.666667-47.853333 106.666666-106.666667s-47.853333-106.666667-106.666666-106.666667-106.666667 47.853333-106.666667 106.666667 47.853333 106.666667 106.666667 106.666667z m0-170.666667a64 64 0 1 1-64 64 64.073333 64.073333 0 0 1 64-64z m438.5 323.58L682.666667 543.246667V384a21.333333 21.333333 0 0 0 15.086666-36.42L512 161.833333V85.333333h21.333333a21.333333 21.333333 0 0 0 0-42.666666h-21.333333V21.333333a21.333333 21.333333 0 0 0-42.666667 0v21.333334h-21.333333a21.333333 21.333333 0 0 0 0 42.666666h21.333333v76.5L283.58 347.58A21.333333 21.333333 0 0 0 298.666667 384v159.246667l-246.5 164.333333a21.333333 21.333333 0 0 0 23.666666 35.506667l9.5-6.333334V960a21.333333 21.333333 0 0 0 21.333334 21.333333h768a21.333333 21.333333 0 0 0 21.333333-21.333333v-223.246667l9.5 6.333334a21.333333 21.333333 0 1 0 23.666667-35.506667zM192 810.666667a21.333333 21.333333 0 0 0-21.333333 21.333333v106.666667h-42.666667v-230.36l170.666667-113.78V938.666667H213.333333v-106.666667a21.333333 21.333333 0 0 0-21.333333-21.333333z m149.333333-255.826667v-204.666667l149.333334-149.333333 149.333333 149.333333V938.666667h-42.666667v-149.333334c0-58.813333-47.853333-106.666667-106.666666-106.666666s-106.666667 47.853333-106.666667 106.666666v149.333334h-42.666667zM426.666667 938.666667v-149.333334a64 64 0 0 1 128 0v149.333334z m426.666666 0h-42.666666v-106.666667a21.333333 21.333333 0 0 0-42.666667 0v106.666667h-85.333333V594.526667l170.666666 113.78z" fill="#cdcdcd" p-id="19548"></path></svg>