<?xml version="1.0" standalone="no"?>
<!DOCTYPE svg PUBLIC "-//W3C//DTD SVG 20010904//EN"
 "http://www.w3.org/TR/2001/REC-SVG-20010904/DTD/svg10.dtd">
<svg version="1.0" xmlns="http://www.w3.org/2000/svg"
 width="50.000000pt" height="50.000000pt" viewBox="0 0 50.000000 50.000000"
 preserveAspectRatio="xMidYMid meet">

<g transform="translate(0.000000,50.000000) scale(0.100000,-0.100000)"
fill="#FFFFFF" stroke="none">
<path d="M101 436 c-86 -48 -52 -176 47 -176 86 0 125 99 63 161 -32 32 -70
37 -110 15z m39 1 c0 -2 -18 -21 -40 -42 -22 -21 -40 -33 -40 -26 0 15 54 71
69 71 6 0 11 -1 11 -3z m40 -4 c0 -10 -102 -113 -112 -113 -20 0 -4 28 39 72
43 43 73 60 73 41z m34 -21 c3 -5 -23 -37 -58 -71 -43 -42 -66 -59 -71 -51 -5
7 15 34 51 71 59 59 69 66 78 51z m16 -34 c0 -17 -91 -108 -107 -108 -22 0
-15 13 39 67 53 54 68 63 68 41z m-21 -84 c-12 -13 -29 -24 -38 -24 -10 0 -3
12 19 35 19 20 36 31 38 25 2 -6 -6 -22 -19 -36z"/>
<path d="M289 421 c-62 -62 -23 -161 63 -161 99 0 134 131 47 176 -43 22 -77
17 -110 -15z m61 16 c0 -2 -18 -21 -40 -42 -30 -29 -40 -35 -40 -22 0 22 44
67 65 67 8 0 15 -1 15 -3z m34 -4 c7 -7 -92 -113 -106 -113 -20 0 -4 28 39 72
48 49 55 53 67 41z m32 -24 c7 -12 -94 -119 -113 -119 -25 0 -12 25 39 77 55
56 63 60 74 42z m-21 -89 c-44 -45 -75 -62 -75 -43 0 4 23 31 52 60 35 35 55
50 62 43 7 -7 -6 -27 -39 -60z m40 8 c-8 -28 -41 -58 -63 -58 -11 0 -3 13 23
40 21 22 41 40 43 40 2 0 0 -10 -3 -22z"/>
<path d="M79 211 c-61 -62 -14 -161 77 -161 41 0 84 51 84 98 0 86 -99 125
-161 63z m61 16 c0 -2 -18 -21 -40 -42 -30 -29 -40 -35 -40 -22 0 22 44 67 65
67 8 0 15 -1 15 -3z m40 -5 c0 -4 -24 -32 -54 -61 -36 -36 -56 -49 -61 -41 -4
7 12 31 41 61 44 45 74 61 74 41z m30 -25 c0 -7 -25 -37 -55 -67 -43 -43 -57
-52 -67 -42 -10 10 -1 24 42 67 53 54 80 68 80 42z m20 -30 c0 -21 -97 -110
-110 -102 -8 5 5 25 41 61 55 55 69 64 69 41z m0 -41 c0 -21 -32 -53 -60 -61
-23 -7 -21 -3 15 34 44 46 45 47 45 27z"/>
<path d="M286 214 c-38 -38 -36 -95 3 -135 62 -61 161 -14 161 77 0 15 -12 38
-29 55 -40 39 -97 41 -135 3z m24 -19 c-19 -20 -36 -31 -38 -25 -5 15 38 60
57 60 10 0 3 -12 -19 -35z m80 28 c0 -10 -102 -113 -112 -113 -20 0 -4 28 39
72 43 43 73 60 73 41z m-27 -84 c-38 -39 -65 -59 -73 -54 -8 5 8 28 51 71 43
43 67 60 73 54 7 -7 -10 -30 -51 -71z m77 29 c0 -17 -91 -108 -107 -108 -22 0
-15 13 39 67 53 54 68 63 68 41z m0 -39 c0 -15 -56 -69 -71 -69 -7 0 5 18 26
40 43 44 45 45 45 29z"/>
</g>
</svg>
