<?xml version="1.0" standalone="no"?>
<!DOCTYPE svg PUBLIC "-//W3C//DTD SVG 20010904//EN"
 "http://www.w3.org/TR/2001/REC-SVG-20010904/DTD/svg10.dtd">
<svg version="1.0" xmlns="http://www.w3.org/2000/svg"
 width="50.000000pt" height="50.000000pt" viewBox="0 0 50.000000 50.000000"
 preserveAspectRatio="xMidYMid meet">

<g transform="translate(0.000000,50.000000) scale(0.100000,-0.100000)"
fill="#FFFFFF" stroke="none">
<path d="M106 429 c-30 -23 -34 -39 -10 -39 13 0 11 -5 -8 -23 -25 -24 -44
-64 -35 -73 3 -3 19 2 36 11 23 11 44 14 81 9 48 -6 80 -24 45 -24 -10 0 -33
-16 -52 -35 -19 -19 -37 -35 -39 -35 -13 0 -1 47 18 67 12 13 16 23 10 23 -30
0 -54 -76 -33 -109 7 -11 11 -9 21 10 7 13 19 32 27 41 14 15 16 15 35 -4 23
-23 20 -54 -12 -146 l-19 -53 47 3 47 3 8 45 c4 25 6 66 5 93 -2 38 0 48 15
53 9 3 17 10 17 16 0 18 32 -15 46 -47 l12 -30 13 28 c10 23 10 33 -4 62 -9
19 -22 35 -28 35 -6 0 -1 -12 10 -26 18 -23 29 -64 17 -64 -2 0 -20 16 -39 35
-19 19 -42 35 -52 35 -35 0 -3 18 45 24 37 5 58 2 81 -9 17 -9 33 -14 36 -11
9 9 -10 49 -35 73 -19 18 -21 23 -8 23 24 0 20 16 -10 39 -41 32 -100 24 -130
-18 -10 -13 -16 -11 -44 12 -38 32 -78 35 -114 6z m109 -14 c14 -13 25 -33 25
-44 0 -20 -1 -19 -36 4 -21 14 -51 25 -70 25 -37 0 -44 13 -16 29 30 18 72 12
97 -14z m168 11 c25 -19 21 -26 -14 -26 -35 0 -64 -13 -97 -44 l-24 -21 7 30
c14 61 84 94 128 61z m-168 -71 c29 -28 33 -51 8 -39 -37 16 -100 16 -132 0
-40 -21 -41 -4 -2 35 38 38 91 40 126 4z m196 -4 c39 -39 38 -56 -2 -35 -32
16 -95 16 -131 0 -26 -12 -22 11 7 39 35 36 88 34 126 -4z m-151 -66 c0 -8 -7
-15 -15 -15 -16 0 -20 12 -8 23 11 12 23 8 23 -8z m-39 -18 c-1 -12 -15 -9
-19 4 -3 6 1 10 8 8 6 -3 11 -8 11 -12z m77 2 c-2 -6 -8 -10 -13 -10 -5 0 -11
4 -13 10 -2 6 4 11 13 11 9 0 15 -5 13 -11z m-38 -24 c0 -8 -7 -15 -15 -15 -9
0 -12 6 -9 15 4 8 10 15 15 15 5 0 9 -7 9 -15z m10 -50 c0 -18 -5 -25 -18 -25
-25 0 -31 7 -25 31 8 29 43 25 43 -6z m0 -55 c0 -16 -7 -20 -30 -20 -18 0 -30
5 -30 13 0 20 10 27 37 27 16 0 23 -6 23 -20z m-10 -55 c0 -22 -4 -25 -35 -25
-38 0 -40 2 -25 31 6 11 21 19 35 19 20 0 25 -5 25 -25z"/>
</g>
</svg>
