<?xml version="1.0" standalone="no"?>
<!DOCTYPE svg PUBLIC "-//W3C//DTD SVG 20010904//EN"
 "http://www.w3.org/TR/2001/REC-SVG-20010904/DTD/svg10.dtd">
<svg version="1.0" xmlns="http://www.w3.org/2000/svg"
 width="50.000000pt" height="50.000000pt" viewBox="0 0 50.000000 50.000000"
 preserveAspectRatio="xMidYMid meet">

<g transform="translate(0.000000,50.000000) scale(0.100000,-0.100000)"
fill="#FFFFFF" stroke="none">
<path d="M215 417 c-15 -34 -7 -74 16 -80 18 -5 20 -13 17 -78 -3 -64 -5 -73
-25 -80 -23 -8 -23 -7 -23 81 l0 90 -69 0 -70 0 -3 -150 -3 -150 195 0 196 0
-10 55 c-6 30 -14 55 -18 55 -4 0 -8 34 -8 75 l0 75 -65 0 -65 0 0 -60 c0 -33
-4 -60 -10 -60 -6 0 -10 32 -10 75 0 57 3 75 14 75 19 0 26 46 12 76 -15 32
-57 33 -71 1z m55 3 c0 -5 -9 -10 -20 -10 -11 0 -20 5 -20 10 0 6 9 10 20 10
11 0 20 -4 20 -10z m12 -26 c3 -3 4 -14 1 -25 -4 -13 -14 -19 -34 -19 -24 0
-29 4 -29 25 0 21 5 25 28 25 16 0 31 -3 34 -6z m-92 -129 l0 -75 -60 0 -60 0
0 75 0 75 60 0 60 0 0 -75z m210 -30 c0 -86 -10 -97 -66 -70 l-43 20 -1 58 0
57 55 0 55 0 0 -65z m-212 -117 l3 -58 -61 0 -60 0 0 53 c0 30 3 57 7 61 4 4
30 6 58 4 l50 -3 3 -57z m102 21 c0 -16 -4 -29 -10 -29 -5 0 -10 16 -10 36 0
21 4 33 10 29 6 -3 10 -19 10 -36z m-30 1 c0 -20 -5 -30 -15 -30 -10 0 -15 10
-15 30 0 20 5 30 15 30 10 0 15 -10 15 -30z m68 -3 c2 -19 -1 -27 -12 -27 -11
0 -16 10 -16 31 0 38 24 35 28 -4z m-108 -2 c0 -14 -4 -25 -10 -25 -5 0 -10
11 -10 25 0 14 5 25 10 25 6 0 10 -11 10 -25z m150 -16 c0 -5 -7 -9 -15 -9 -9
0 -15 9 -15 21 0 18 2 19 15 9 8 -7 15 -16 15 -21z m50 17 c0 -7 3 -28 6 -45
6 -28 4 -31 -20 -31 -27 0 -33 18 -20 68 7 24 34 31 34 8z m-50 -56 c0 -18 -7
-20 -85 -20 -78 0 -85 2 -85 20 0 18 7 20 85 20 78 0 85 -2 85 -20z"/>
<path d="M313 235 c0 -27 2 -38 4 -22 2 15 2 37 0 50 -2 12 -4 0 -4 -28z"/>
<path d="M343 235 c0 -27 2 -38 4 -22 2 15 2 37 0 50 -2 12 -4 0 -4 -28z"/>
<path d="M373 235 c0 -27 2 -38 4 -22 2 15 2 37 0 50 -2 12 -4 0 -4 -28z"/>
<path d="M163 120 c0 -25 2 -35 4 -22 2 12 2 32 0 45 -2 12 -4 2 -4 -23z"/>
<path d="M93 115 c0 -22 2 -30 4 -17 2 12 2 30 0 40 -3 9 -5 -1 -4 -23z"/>
<path d="M133 115 c0 -22 2 -30 4 -17 2 12 2 30 0 40 -3 9 -5 -1 -4 -23z"/>
</g>
</svg>
