<?xml version="1.0" standalone="no"?>
<!DOCTYPE svg PUBLIC "-//W3C//DTD SVG 20010904//EN"
 "http://www.w3.org/TR/2001/REC-SVG-20010904/DTD/svg10.dtd">
<svg version="1.0" xmlns="http://www.w3.org/2000/svg"
 width="128.000000pt" height="128.000000pt" viewBox="0 0 128.000000 128.000000"
 preserveAspectRatio="xMidYMid meet">

<g transform="translate(0.000000,128.000000) scale(0.100000,-0.100000)"
fill="#000000" stroke="none">
<path d="M627 1194 c-4 -4 -7 -25 -7 -46 0 -37 -1 -38 -35 -38 -33 0 -35 -2
-35 -35 0 -19 -4 -35 -8 -35 -5 0 -29 -14 -54 -30 -51 -34 -90 -87 -108 -148
-8 -25 -20 -42 -32 -45 -26 -7 -20 -39 10 -52 18 -8 22 -18 22 -52 l0 -43 -39
0 -38 0 -5 50 c-14 145 -188 140 -188 -6 0 -23 -6 -41 -17 -49 -18 -13 -10
-35 13 -35 12 0 14 -37 12 -257 -3 -240 -4 -256 -21 -259 -24 -3 -31 -10 -22
-23 9 -15 1121 -15 1130 0 9 13 2 20 -22 23 -17 3 -18 19 -21 258 -2 249 -2
256 18 261 26 7 26 27 0 34 -16 4 -20 14 -20 45 0 52 -23 94 -58 106 -68 23
-119 -15 -129 -96 -6 -51 -6 -52 -39 -52 -34 0 -34 1 -34 45 0 32 4 45 14 45
7 0 20 7 27 16 11 14 10 19 -8 34 -12 9 -26 35 -32 57 -15 56 -71 125 -125
153 -36 20 -46 30 -48 55 -3 26 -8 30 -35 33 -30 3 -32 6 -35 44 -3 39 -16 57
-31 42z m-82 -211 c-18 -44 -35 -109 -35 -135 0 -27 -2 -28 -51 -28 l-51 0 6
32 c8 43 51 103 90 128 38 24 50 25 41 3z m242 -12 c39 -28 83 -99 83 -134 0
-14 -10 -17 -50 -17 l-50 0 0 35 c0 19 -9 58 -20 87 -11 29 -20 54 -20 56 0 8
23 -2 57 -27z m73 -256 c0 -43 -1 -45 -30 -45 -17 0 -66 18 -110 40 l-80 40
-80 -40 c-44 -22 -93 -40 -110 -40 -29 0 -30 2 -30 45 l0 45 220 0 220 0 0
-45z m-600 -20 c0 -24 -3 -25 -55 -25 -52 0 -55 1 -55 25 0 24 3 25 55 25 52
0 55 -1 55 -25z m868 -2 c3 -22 0 -23 -57 -23 -59 0 -61 1 -61 25 0 25 2 26
58 23 50 -3 57 -6 60 -25z m-772 -86 c-49 -27 -51 -41 -8 -45 l32 -3 0 -115 0
-115 -112 3 -113 3 -3 148 -3 147 123 0 123 0 -39 -23z m772 -124 l-3 -148
-112 -3 -113 -3 0 115 0 115 33 3 c42 4 39 18 -9 45 l-39 23 123 0 123 0 -3
-147z m-680 -145 c-2 -166 -6 -222 -15 -226 -10 -3 -13 46 -13 222 0 196 2
226 15 226 13 0 15 -29 13 -222z m340 0 c-3 -219 -3 -221 -25 -223 -21 -1 -21
3 -25 113 l-3 114 -33 29 c-42 38 -82 38 -124 0 -33 -29 -33 -30 -38 -143 -5
-109 -6 -113 -27 -114 l-23 -1 0 223 0 224 150 0 150 0 -2 -222z m70 0 c-2
-166 -6 -222 -15 -226 -10 -3 -13 46 -13 222 0 196 2 226 15 226 13 0 15 -29
13 -222z"/>
<path d="M214 505 c-21 -21 -25 -33 -22 -73 l3 -47 75 0 75 0 3 29 c11 96 -72
153 -134 91z"/>
<path d="M960 510 c-23 -23 -33 -56 -28 -96 l3 -29 75 0 75 0 3 47 c3 40 -1
52 -22 73 -31 31 -78 33 -106 5z"/>
<path d="M524 516 c-3 -8 -4 -27 -2 -43 3 -25 7 -28 46 -31 l43 -3 -3 43 c-3
42 -4 43 -41 46 -26 2 -39 -1 -43 -12z"/>
<path d="M677 524 c-4 -4 -7 -25 -7 -46 l0 -39 43 3 c42 3 42 3 42 43 0 39 -1
40 -35 43 -20 2 -39 0 -43 -4z"/>
</g>
</svg>
