<svg t="1651728241598" class="icon" viewBox="0 0 1024 1024" version="1.1" xmlns="http://www.w3.org/2000/svg" p-id="22780" width="400" height="400"><path d="M784.4736 802.176v90.2016h-547.2v-89.3696l12.8256-5.9904 21.888 25.5104a12.7744 12.7744 0 0 0 17.6256 17.856c2.1632-1.4464 219.5072-142.2848 442.0224 0.128a12.8 12.8 0 0 0 17.6896-3.8912 12.7232 12.7232 0 0 0-3.4048-17.216l27.2512-31.7696 14.2464 6.6688a12.5952 12.5952 0 0 0-2.944 7.8592z m-582.272-49.8432c1.8816-0.832 7.7696 0.3584 18.0992 9.9456l12.4928 14.5664-43.7632 20.48c1.4848-21.2864 6.4256-41.984 13.1712-44.992z m60.8512 3.6608c13.1456 0 25.7408-0.6272 37.7216-1.6l-12.5696 47.7568-40-46.656c4.9536 0.1664 10.0224 0.512 14.848 0.512z m45.4144 44.7104l12.7232-48.384a503.1808 503.1808 0 0 0 54.5408-9.7664 547.072 547.072 0 0 1-67.264 58.1504z m393.728-57.8048l15.7184 59.776a527.104 527.104 0 0 1-73.344-70.5792c14.336 3.648 34.1632 7.8592 57.6256 10.8032z m-105.6256-42.3424c19.3792 29.4144 41.2672 54.7456 61.888 75.264a409.1392 409.1392 0 0 0-113.664-23.5008l51.776-51.7632z m-112.4096-114.6112l20.8384 20.6848-39.424 42.752c4.2368-9.024 8.128-18.2912 11.4816-27.8528 0.3584-1.2544 3.52-13.2096 7.104-35.584z m18.2144-89.8304h28.9792c1.2032 11.9936 2.56 23.1168 4.0064 33.3184l-32.9856-33.3184z m34.688 75.7376l-19.0336 20.6464-20.8256-20.6464h39.8592z m-42.1504-148.2752h21.376l-21.6064 33.0368a1260.672 1260.672 0 0 0 0.2304-33.024z m-0.6784-146.9952h22.4128l-22.4128 38.7456v-38.7456z m26.1376-15.36h-26.1376v-35.5328l26.1376 35.5328z m-8.512-37.504h14.9376l-0.0384 20.2624-14.8992-20.2624z m17.7536 253.1968h-29.8496l27.3536-41.856a1045.504 1045.504 0 0 0 2.496 41.856z m-3.0336-145.28h-24.0256l24.1024-41.6896-0.0768 41.6896z m-0.128 58.1376l-26.6368-40.6528h26.7264l-0.0896 40.6528z m-32.2176-3.9168V368.64l23.424 35.7376h-23.0016c-0.1024-6.1184-0.2048-12.16-0.4224-18.5216z m-5.6064 166.7968c1.4848-13.0944 2.8544-27.84 3.9552-44.608l44.1344 44.608h-48.0896z m43.0336 53.3888l15.2192-16.512c5.3632 21.2224 9.7792 31.8464 10.1248 32.6528 1.792 5.0816 3.8912 9.9328 5.9008 14.8608l-31.2448-31.0016z m-65.1008 70.6048l52.0704-56.4864 56.9472 56.4864H466.56z m-0.6656 18.2784h106.3424l-53.1712 53.1712-53.1712-53.1712z m43.4816-508.2496l12.4544 17.8432H498.432l10.944-17.8432z m-71.2064 510.4896l54.9376 54.9376c-47.5008 2.7264-89.9072 12.8512-124.48 24.4224 23.3728-21.44 48.256-48.1024 69.5424-79.36z m336.8832 48.9728l-39.9104 46.528-12.5184-47.6416c11.904 0.9728 24.4352 1.6 37.5808 1.6 4.8128 0 9.8944-0.32 14.848-0.4864z m59.1872 41.8048l-43.776-20.4672 12.4928-14.5792c10.3296-9.5744 16.1792-10.7264 18.0992-9.9328 6.7584 2.9952 11.6992 23.7056 13.184 44.9792z m28.0448 13.1072l-1.9328-0.896c0.0256-20.288-2.7136-68.928-28.8768-80.576a28.544 28.544 0 0 0-14.976-2.2272c-0.6016 0-1.152-0.192-1.7664-0.1024-98.5856 14.08-185.8816-16.3456-186.7648-16.6656a12.608 12.608 0 0 0-8.0128 0.0512c-17.8688-25.2416-33.9584-53.888-45.056-85.4144-0.2816-0.6144-26.5216-63.2192-29.2992-203.3536l0.4352-203.2a9.5616 9.5616 0 0 0-1.7408-5.504l-25.856-36.992V112a9.6 9.6 0 0 0-19.2 0v54.4512l-22.784 37.1712a9.5488 9.5488 0 0 0-1.4208 5.0304V386.176c4.8512 149.376-16.2816 229.5424-16.2944 229.6448-12.3008 35.008-31.8592 66.496-53.6704 93.7088a12.3776 12.3776 0 0 0-6.848 0.2048c-0.9088 0.32-90.8032 31.0144-189.7088 16.9088-0.64-0.0896-1.2416 0.0896-1.8688 0.1024a28.672 28.672 0 0 0-14.8608 2.2144c-26.1632 11.648-28.9024 60.288-28.864 80.5632l-1.9456 0.9216a12.8 12.8 0 1 0 10.8544 23.1808l39.8464-18.624v77.3888h-39.5904a12.8 12.8 0 1 0 0 25.6H849.664a12.8 12.8 0 1 0 0-25.6h-39.5904v-87.4752l41.3568 19.3408a12.8384 12.8384 0 0 0 17.0368-6.1824c2.9824-6.4 0.2176-14.016-6.1824-17.0112z" p-id="22781" fill="#cdcdcd"></path></svg>