<?xml version="1.0" standalone="no"?>
<!DOCTYPE svg PUBLIC "-//W3C//DTD SVG 20010904//EN"
 "http://www.w3.org/TR/2001/REC-SVG-20010904/DTD/svg10.dtd">
<svg version="1.0" xmlns="http://www.w3.org/2000/svg"
 width="50.000000pt" height="50.000000pt" viewBox="0 0 50.000000 50.000000"
 preserveAspectRatio="xMidYMid meet">

<g transform="translate(0.000000,50.000000) scale(0.100000,-0.100000)"
fill="#FFFFFF" stroke="none">
<path d="M364 418 c-16 -18 -20 -26 -9 -18 11 8 24 21 28 28 13 19 32 14 47
-13 7 -14 15 -23 17 -21 8 7 -29 56 -41 56 -7 0 -25 -14 -42 -32z"/>
<path d="M285 410 c-3 -5 -1 -10 4 -10 6 0 11 5 11 10 0 6 -2 10 -4 10 -3 0
-8 -4 -11 -10z"/>
<path d="M214 395 c-9 -23 3 -45 24 -45 11 0 25 7 32 15 16 19 -3 45 -32 45
-10 0 -21 -7 -24 -15z m54 -12 c5 -17 -26 -29 -40 -15 -6 6 -7 15 -3 22 9 14
37 9 43 -7z"/>
<path d="M73 336 c-28 -29 -30 -40 -3 -24 11 7 20 18 20 25 0 22 27 14 44 -12
9 -14 23 -25 30 -25 9 0 3 11 -14 30 -34 36 -48 37 -77 6z"/>
<path d="M285 350 c3 -5 8 -10 11 -10 2 0 4 5 4 10 0 6 -5 10 -11 10 -5 0 -7
-4 -4 -10z"/>
<path d="M190 279 c-14 -5 -35 -20 -47 -31 -13 -12 -23 -16 -23 -10 0 7 -13
12 -29 12 -29 0 -29 0 -33 -70 -3 -67 -2 -70 23 -81 20 -8 32 -7 47 2 17 11
25 11 46 -1 22 -11 30 -11 51 0 21 11 29 11 50 0 21 -11 29 -11 51 0 21 12 29
12 46 1 15 -9 27 -10 47 -1 23 9 26 16 24 48 -9 90 -13 102 -38 102 -18 0 -25
-7 -30 -30 -10 -43 -45 -42 -45 2 0 30 0 31 20 13 11 -10 20 -13 20 -7 0 38
-126 74 -180 51z m48 -41 c-4 -59 -28 -63 -28 -4 0 35 4 46 16 46 12 0 14 -9
12 -42z m42 -3 c0 -33 -4 -45 -15 -45 -11 0 -15 12 -15 45 0 33 4 45 15 45 11
0 15 -12 15 -45z m-82 -2 c-4 -48 -28 -57 -28 -10 0 18 3 37 7 40 16 16 24 4
21 -30z m120 -6 c2 -28 -1 -37 -12 -37 -12 0 -16 11 -16 41 0 52 24 48 28 -4z
m-167 -30 c-21 -21 -32 7 -13 33 l17 25 3 -24 c2 -13 -1 -28 -7 -34z m-38 -24
c3 -38 3 -70 1 -73 -3 -2 -13 1 -22 6 -12 8 -18 28 -20 73 -3 54 -1 61 16 61
17 0 20 -10 25 -67z m313 44 c10 -40 0 -99 -18 -111 -26 -16 -30 -3 -23 68 5
46 12 66 21 66 7 0 16 -11 20 -23z m-54 -67 c-3 -23 -9 -30 -26 -30 -12 0 -27
-5 -32 -10 -8 -8 -19 -7 -37 1 -21 10 -33 10 -54 0 -18 -8 -29 -9 -37 -1 -5 5
-20 10 -32 10 -21 0 -34 17 -34 46 0 11 24 14 128 14 l129 0 -5 -30z"/>
<path d="M74 64 c24 -13 33 -14 52 -3 20 10 29 10 49 -1 21 -11 29 -11 50 0
21 11 29 11 50 0 21 -11 29 -11 50 0 20 11 29 11 49 1 19 -11 28 -10 52 3 16
8 22 15 14 16 -9 0 -21 -5 -28 -12 -9 -9 -17 -9 -36 2 -20 10 -31 10 -54 1
-24 -10 -34 -10 -51 1 -17 11 -25 11 -42 0 -17 -11 -27 -11 -51 -1 -23 9 -34
9 -54 -1 -19 -11 -27 -11 -36 -2 -7 7 -19 12 -27 12 -9 -1 -3 -8 13 -16z"/>
</g>
</svg>
