<svg t="1651728144380" class="icon" viewBox="0 0 1024 1024" version="1.1" xmlns="http://www.w3.org/2000/svg" p-id="22137" width="400" height="400"><path d="M455.29347019 736.61677388c-0.58915875 6.48074626-6.1861669 11.34130596-12.81420283 10.75214722-6.48074626-0.58915875-11.34130596-6.1861669-10.75214721-12.81420286 3.24037312-37.26429101 5.30242877-73.20297484 6.18616689-107.52147206 0.1472897-6.48074626 5.59700814-11.63588534 12.07775439-11.48859565 6.48074626 0.1472897 11.63588534 5.59700814 11.48859566 12.07775438-0.88373813 34.907656-2.94579374 71.2882089-6.1861669 108.99436897z m-3.97682157-319.47133281c6.92261532 48.90017634 10.45756784 101.92446395 10.75214722 159.0728628 0 6.48074626-5.15513907 11.78317502-11.78317503 11.78317503-6.48074626 0-11.78317502-5.15513907-11.78317502-11.78317503-0.29457937-56.11737105-3.82953187-108.11063085-10.45756783-155.97977935-12.81420285-90.87773737-28.13233036-191.32930444-46.10167229-301.35470123-1.47289687-9.13196064 7.65906378-16.34915535 16.20186567-12.81420284 112.67661117 46.83812071 206.64743197 117.38988117 281.91246244 204.43808665 57.88484731 66.86951826 101.48259488 140.21978279 126.66913149 204.29079697 2.35663501 6.03887719-0.58915875 12.96149253-6.62803596 15.31812754-6.03887719 2.35663501-12.96149253-0.58915875-15.31812752-6.62803596-24.15550879-61.71437919-66.42764919-132.70800869-122.54502024-197.51547133-68.63699453-79.24185204-153.18127531-144.34389403-253.63284238-189.26724882 16.49644503 101.77717426 30.78354474 195.30612602 42.71400945 280.43956557zM272.21238829 506.84486093c13.40336159 63.03998638 21.06242535 136.39025089 23.12448097 219.90350387 0.1472897 6.48074626-5.0078494 11.93046471-11.48859565 12.0777544-6.48074626 0.1472897-11.93046471-5.0078494-12.0777544-11.48859565-1.91476594-82.18764578-9.42654002-154.06501342-22.53532223-215.63210292-14.13981003-66.42764919-29.31064787-139.48333433-45.51251353-219.16705544-1.76747625-8.98467097 6.92261532-16.49644503 15.61270691-13.4033616 78.94727266 28.57419943 134.03361589 53.46615666 165.70089876 74.9704511 5.44971845 3.68224221 6.77532564 11.04672658 3.09308345 16.34915535-3.68224221 5.44971845-11.04672658 6.77532564-16.34915536 3.09308343-27.10130255-18.41121097-74.08671296-40.21008477-140.66165182-65.102042 14.58167909 71.87736764 28.27962006 137.86314777 41.0938229 198.39920946zM143.48120115 635.87062743c13.55065127 26.65943349 26.95401286 57.59026793 40.21008475 92.79250331 2.35663501 6.03887719-0.73644845 12.81420285-6.92261531 15.17083785-6.03887719 2.35663501-12.81420285-0.73644845-15.17083785-6.92261532-12.96149253-34.46578693-25.92298506-64.51288325-39.17905694-90.43586832-19.44223878-38.14802914-38.88447758-79.24185204-58.47400606-123.57604806-3.68224221-8.24822251 3.09308345-17.52747284 12.0777544-16.49644503 68.78428419 7.51177407 117.24259148 18.26392129 145.66950123 32.25644163 5.89158752 2.94579374 8.24822251 10.01569877 5.30242876 15.75999659-2.94579374 5.89158752-10.01569877 8.24822251-15.75999659 5.30242877-22.68261193-11.19401627-61.86166887-20.47326659-117.24259149-27.54317164 16.64373472 36.96971163 32.99289006 71.43549857 49.4893351 103.69194022z" fill="#cdcdcd" p-id="22138"></path><path d="M77.05355195 843.99095628c0 6.48074626-5.30242877 11.78317502-11.78317502 11.78317503s-11.78317502-5.30242877-11.78317502-11.78317503V780.06723178c0-29.60522723 24.15550879-53.61344636 53.76073604-53.61344635h402.39542704c6.92261532 0 13.55065127 2.20934532 20.47326662 6.18616689 6.48074626 3.82953187 9.13196064 6.03887719 22.68261192 17.67476253 15.31812754 13.10878221 23.56635005 18.11663161 32.25644161 18.1166316 57.88484731 0 172.18164502-1.47289687 343.18497256-4.56598032 29.75251694 0 53.76073604 24.00821911 53.76073604 53.61344635v76.88521702c0 6.48074626-5.30242877 11.78317502-11.78317502 11.78317503s-11.78317502-5.30242877-11.78317502-11.78317503v-76.88521702c0-16.64373472-13.55065127-30.04709632-30.04709631-30.0470963-170.85603783 2.94579374-285.30012524 4.56598032-343.33226225 4.56598031-16.34915535 0-28.27962006-7.06990501-47.72185885-23.86092942-12.0777544-10.45756784-14.4343894-12.37233377-19.14765939-15.17083783-3.5349525-2.06205563-6.33345658-2.94579374-8.54280191-2.94579377H107.24793795c-16.64373472 0-30.19438599 13.55065127-30.194386 30.04709631v63.9237245z" fill="#cdcdcd" p-id="22139"></path><path d="M109.30999357 851.94459942v-34.02391787c0-21.06242535 17.08560379-38.14802914 38.14802915-38.14802914h347.16179411c21.65158411 0 41.38840227 38.14802914 68.63699452 38.14802914 52.72970823 0 162.90239469-1.3256072 330.81263877-4.12411127 21.06242535 0 38.14802914 17.08560379 38.14802915 38.14802914v49.63662478c-65.39662137-39.62092601-114.44408741-59.94690292-147.14239811-60.83064105-15.31812754-0.44186907-75.85418921 55.52821229-176.30575627 60.83064105-37.26429101 1.91476594-97.21119393-56.41195043-178.95697067-60.38877199-35.05494569-1.76747625-59.50503387 24.45008817-137.42127872 60.38877199-12.0777544 5.59700814-73.20297484-11.04672658-183.08108193-49.63662478z" fill="#cdcdcd" p-id="22140"></path><path d="M551.62092601 752.37677046c-4.71327001 4.41869063-12.22504409 4.27140094-16.64373472-0.44186904-4.41869063-4.71327001-4.27140094-12.22504409 0.44186907-16.64373473 143.4601559-136.24296122 288.83507776-204.73266603 435.83018618-204.73266603 8.98467097 0 14.58167909 9.5738297 10.31027813 17.38018317L856.06871069 778.59433491c-3.09308345 5.74429781-10.31027814 7.80635344-16.05457597 4.71327001s-7.80635344-10.31027814-4.71327003-16.05457598l115.76969461-212.83359886c-133.59174684 6.03887719-266.59433491 71.87736764-399.44963329 197.95734038zM3.26141836 881.99169573c-5.30242877 3.68224221-12.66691315 2.35663501-16.34915534-2.94579376s-2.35663501-12.66691315 2.94579376-16.34915534c61.4197998-42.56671978 125.19623462-42.56671978 188.97266944-0.14728969 37.26429101 24.89195725 73.49755421 32.99289006 109.58352771 24.89195724 6.33345658-1.47289687 12.66691315 2.50392469 14.13981004 8.98467096s-2.50392469 12.66691315-8.98467098 14.13981003c-42.56671978 9.5738297-85.42801891 0-127.84744898-28.27962007-55.82279168-37.4115807-109.14165865-37.4115807-162.46052565-0.29457937z m794.77515534-49.63662478c20.76784598 4.71327001 41.68298165 14.58167909 62.74540699 29.16335818 54.49718448 37.85344976 106.93231333 37.85344976 159.80931125 0.1472897 5.30242877-3.82953187 12.66691315-2.50392469 16.49644504 2.79850405 3.82953187 5.30242877 2.50392469 12.66691315-2.79850407 16.49644503-60.97793075 43.59774757-124.3124965 43.59774757-186.91061381 0.14728969-18.85308003-13.10878221-36.96971163-21.50429441-54.64447417-25.62840566-33.43475913-7.65906378-65.54391107 0.44186907-96.91661456 25.18653661l-0.44186907 0.29457936c-64.80746262 46.24896197-128.73118714 46.69083102-188.53080037 0.73644844-51.25681135-39.32634663-100.1569877-39.32634663-149.79361248-0.14728967-5.15513907 3.97682157-12.51962347 3.24037312-16.49644505-1.91476595-3.97682157-5.15513907-3.24037312-12.51962347 1.91476595-16.49644504 58.17942668-46.10167228 118.86277805-46.10167228 178.80968098-0.14728967 51.25681135 39.32634663 103.69194019 39.17905696 160.25118032-1.17831752 36.82242196-28.86877882 76.0014789-38.88447758 116.50614305-29.45793755z" fill="#cdcdcd" p-id="22141"></path><path d="M908.79841891 581.22615326l-95.73829706 161.87136689L593.00932829 749.13639734c41.24111259-40.65195383 92.35063425-77.32708608 153.32856499-110.02539679S861.51842913 587.11774077 908.79841891 581.22615326z" fill="#cdcdcd" p-id="22142"></path><path d="M433.93646547 171.31895214c48.1637279 229.47733358 63.18727606 408.58159392 45.07064447 537.16549137h47.42727946c51.10952167-37.4115807 147.1423981-122.39773055 244.9427508-163.04968438 0 0-49.19475572-130.94053245-165.11174001-246.85751673-31.81457257-31.66728287-89.25755079-74.08671296-172.32893472-127.25829026z" fill="#cdcdcd" p-id="22143"></path><path d="M320.96527493 460.89047833c0.58915875 2.35663501 1.03102783 4.8605597 1.62018656 7.36448439 1.91476594 8.69009158 9.86840908 43.3031682 11.63588534 50.6676526 3.82953187 17.08560379 5.59700814 25.77569536 6.0388772 29.60522726 0.58915875 6.48074626-4.27140094 12.22504409-10.7521472 12.81420283-6.48074626 0.58915875-12.22504409-4.27140094-12.81420285-10.7521472-0.1472897-2.20934532-2.06205563-11.19401627-5.44971844-26.51214381-1.62018657-7.36448439-9.5738297-41.97756103-11.63588533-50.66765261-0.58915875-2.50392469-1.17831749-5.0078494-1.62018656-7.36448439-8.10093283-36.2332632-13.10878221-60.68335138-15.02354817-75.41232014-1.17831749-9.13196064 8.10093283-16.05457598 16.49644504-12.37233377 18.11663161 7.95364315 34.907656 15.75999659 50.37307323 23.12448099 5.89158752 2.79850407 8.3955122 9.86840908 5.59700813 15.75999659-2.79850407 5.89158752-9.86840908 8.3955122-15.7599966 5.59700814-9.42654002-4.56598032-19.2949491-9.13196064-29.60522723-13.84523067 2.35663501 13.2560719 6.03887719 30.48896537 10.89943688 51.99325979zM510.82168251 275.89463046c-4.8605597-4.41869063-5.30242877-11.78317502-0.88373814-16.64373472s11.78317502-5.30242877 16.64373472-0.88373812c1.47289687 1.3256072 2.65121438 2.35663501 3.97682157 3.38766282 0.73644845 0.58915875 2.79850407 2.35663501 3.09308345 2.65121437l0.29457938 0.29457938c1.03102783 0.88373813 2.06205563 1.76747625 3.09308342 2.79850407 4.8605597 4.41869063 5.15513907 11.78317502 0.73644845 16.64373473-4.41869063 4.8605597-11.78317502 5.15513907-16.64373472 0.73644844-0.88373813-0.73644845-1.62018657-1.47289687-2.50392469-2.20934532l-0.29457937-0.29457936c-0.29457937-0.1472897-2.35663501-2.06205563-3.09308346-2.65121439-1.47289687-1.17831749-2.79850407-2.35663501-4.41869061-3.8295319z m41.24111256 39.32634665c-4.56598032-4.71327001-4.41869063-12.0777544 0.29457938-16.64373471 4.71327001-4.56598032 12.0777544-4.41869063 16.64373472 0.29457937 43.15587853 44.48148572 73.49755421 87.63736425 90.73044768 129.76221494 2.50392469 6.03887719-0.44186907 12.96149253-6.48074626 15.31812752-6.03887719 2.50392469-12.96149253-0.44186907-15.31812753-6.48074624-16.05457598-39.17905696-44.6287754-79.83101077-85.86988799-122.25044088zM143.48120115 574.89269668c13.69794096 26.95401286 23.56635005 47.1327001 29.31064786 60.388772 5.74429781 13.40336159 13.55065127 33.58204881 23.12448098 60.38877199H236.56828382c0-34.46578693-3.5349525-67.01680795-10.89943689-97.94764238-16.20186565-9.86840908-43.59774757-17.52747284-82.18764578-22.82990161z" fill="#cdcdcd" p-id="22144"></path></svg>