<?xml version="1.0" standalone="no"?>
<!DOCTYPE svg PUBLIC "-//W3C//DTD SVG 20010904//EN"
 "http://www.w3.org/TR/2001/REC-SVG-20010904/DTD/svg10.dtd">
<svg version="1.0" xmlns="http://www.w3.org/2000/svg"
 width="50.000000pt" height="50.000000pt" viewBox="0 0 50.000000 50.000000"
 preserveAspectRatio="xMidYMid meet">

<g transform="translate(0.000000,50.000000) scale(0.100000,-0.100000)"
fill="#FFFFFF" stroke="none">
<path d="M160 443 c0 -4 4 -23 9 -41 11 -36 10 -36 -37 -22 l-34 9 7 -40 c7
-40 7 -41 -21 -37 -21 2 -28 -1 -26 -12 12 -53 14 -110 3 -110 -6 0 -11 -9
-11 -20 0 -19 7 -20 200 -20 193 0 200 1 200 20 0 13 -7 20 -20 20 -15 0 -20
7 -20 28 0 27 17 91 35 135 7 17 4 18 -31 11 -22 -3 -47 -11 -56 -16 -14 -7
-25 -1 -49 27 -18 20 -44 42 -58 49 -35 18 -91 30 -91 19z m88 -30 c18 -9 43
-28 57 -44 l24 -29 -25 -37 c-13 -20 -27 -53 -30 -75 -6 -33 -10 -38 -34 -38
-27 0 -27 2 -34 75 -4 41 -13 96 -21 122 -8 26 -15 49 -15 51 0 5 41 -9 78
-25z m-70 -58 c8 -7 21 -88 22 -127 0 -34 -3 -38 -25 -38 -28 0 -28 -1 -44 88
-7 35 -15 70 -18 79 -5 14 -1 15 27 9 18 -3 36 -8 38 -11z m238 -56 c-9 -29
-16 -65 -16 -81 0 -28 -1 -28 -60 -28 -55 0 -60 2 -60 22 0 33 36 101 62 117
22 14 79 30 86 25 2 -1 -4 -26 -12 -55z m-297 -1 c14 -93 13 -108 -7 -108 -26
0 -28 4 -36 62 -7 43 -5 47 16 51 13 2 23 5 24 6 0 0 2 -5 3 -11z m321 -128
c0 -6 -70 -10 -190 -10 -120 0 -190 4 -190 10 0 6 70 10 190 10 120 0 190 -4
190 -10z"/>
<path d="M127 114 c-22 -12 -31 -13 -43 -3 -8 6 -17 10 -19 7 -3 -3 6 -10 19
-18 20 -10 28 -10 46 3 20 14 25 14 45 1 18 -12 28 -12 49 -3 20 10 32 10 52
0 21 -9 31 -9 49 3 20 13 25 13 45 -1 18 -13 26 -13 46 -3 13 8 22 15 19 18
-2 3 -11 -1 -19 -7 -11 -10 -21 -9 -44 3 -25 13 -32 13 -50 0 -16 -11 -26 -12
-46 -2 -20 8 -32 8 -51 0 -21 -10 -30 -9 -48 2 -19 13 -26 13 -50 0z"/>
<path d="M74 64 c24 -13 33 -14 52 -3 20 10 29 10 49 -1 21 -11 29 -11 50 0
21 11 29 11 50 0 21 -11 29 -11 50 0 20 11 29 11 49 1 19 -11 28 -10 52 3 16
8 22 15 14 16 -9 0 -21 -5 -28 -12 -9 -9 -17 -9 -36 2 -20 10 -31 10 -54 1
-24 -10 -34 -10 -51 1 -17 11 -25 11 -42 0 -17 -11 -27 -11 -51 -1 -23 9 -34
9 -54 -1 -19 -11 -27 -11 -36 -2 -7 7 -19 12 -27 12 -9 -1 -3 -8 13 -16z"/>
</g>
</svg>
