<?xml version="1.0" standalone="no"?>
<!DOCTYPE svg PUBLIC "-//W3C//DTD SVG 20010904//EN"
 "http://www.w3.org/TR/2001/REC-SVG-20010904/DTD/svg10.dtd">
<svg version="1.0" xmlns="http://www.w3.org/2000/svg"
 width="128.000000pt" height="128.000000pt" viewBox="0 0 128.000000 128.000000"
 preserveAspectRatio="xMidYMid meet">

<g transform="translate(0.000000,128.000000) scale(0.100000,-0.100000)"
fill="#000000" stroke="none">
<path d="M1030 1120 c0 -5 23 -10 50 -10 28 0 50 5 50 10 0 6 -22 10 -50 10
-27 0 -50 -4 -50 -10z"/>
<path d="M620 995 c-17 -20 -5 -32 15 -15 19 16 47 6 39 -15 -5 -11 1 -15 21
-15 20 0 26 4 21 15 -8 21 20 31 39 15 9 -7 19 -10 23 -6 9 10 -27 36 -49 36
-10 0 -21 -5 -24 -10 -4 -7 -12 -7 -25 0 -26 14 -46 12 -60 -5z"/>
<path d="M270 920 c0 -5 23 -10 50 -10 28 0 50 5 50 10 0 6 -22 10 -50 10 -27
0 -50 -4 -50 -10z"/>
<path d="M370 847 c0 -2 7 -24 16 -48 25 -72 53 -218 60 -316 l7 -93 -50 0
-50 0 -12 81 c-7 44 -23 114 -37 156 -14 42 -22 78 -20 81 3 2 26 -1 52 -7 25
-7 49 -10 51 -7 9 9 -39 27 -89 33 -48 6 -51 5 -44 -13 40 -103 75 -243 76
-296 0 -26 -3 -28 -39 -28 -39 0 -39 0 -46 48 -4 26 -19 80 -35 120 l-28 73
46 -7 c35 -5 44 -3 36 5 -12 13 -114 28 -114 17 0 -4 11 -28 24 -54 28 -54 56
-145 56 -179 0 -16 -6 -23 -20 -23 -17 0 -20 -7 -20 -40 0 -22 -4 -40 -8 -40
-8 0 -32 -43 -32 -55 0 -3 221 -5 490 -5 270 0 490 2 490 5 0 12 -24 55 -32
55 -4 0 -8 18 -8 40 0 22 -4 40 -10 40 -24 0 4 179 35 227 8 12 15 25 15 29 0
13 -99 -5 -138 -25 -55 -28 -125 -111 -94 -111 4 0 16 13 25 30 21 35 87 76
138 85 l37 7 -19 -54 c-10 -29 -21 -83 -25 -120 l-7 -68 -90 0 -90 0 6 108 c6
97 19 189 33 235 7 22 -32 23 -104 2 -75 -23 -110 -59 -204 -210 -110 -179
-119 -180 -136 -17 -6 65 -23 162 -37 217 -13 54 -23 100 -22 102 2 2 26 -4
54 -12 57 -17 124 -62 170 -114 22 -24 32 -31 33 -20 0 25 -94 107 -153 134
-49 22 -137 43 -137 32z m506 -159 c-13 -80 -26 -203 -26 -250 0 -32 -4 -48
-12 -48 -16 0 -147 240 -141 257 11 28 114 80 167 82 16 1 18 -4 12 -41z
m-206 -169 c0 -72 -2 -80 -17 -75 -11 4 -27 -4 -49 -25 -17 -17 -39 -29 -47
-27 -12 2 -1 27 46 106 34 56 63 102 64 102 2 0 3 -36 3 -81z m79 -28 c28 -52
49 -97 46 -99 -3 -3 -20 9 -38 27 -22 21 -39 29 -50 25 -15 -5 -17 3 -17 72 0
42 2 75 4 73 2 -2 27 -46 55 -98z m-50 -72 c14 8 23 6 36 -9 18 -20 17 -20
-55 -20 -72 0 -73 0 -55 20 13 15 22 17 36 9 13 -6 25 -6 38 0z m371 -79 l0
-30 -430 0 -430 0 0 30 0 30 430 0 430 0 0 -30z m30 -60 c0 -7 -160 -10 -460
-10 -300 0 -460 3 -460 10 0 7 160 10 460 10 300 0 460 -3 460 -10z"/>
<path d="M330 340 c0 -5 14 -10 30 -10 17 0 30 5 30 10 0 6 -13 10 -30 10 -16
0 -30 -4 -30 -10z"/>
<path d="M870 340 c0 -5 14 -10 30 -10 17 0 30 5 30 10 0 6 -13 10 -30 10 -16
0 -30 -4 -30 -10z"/>
<path d="M530 220 c0 -6 33 -10 80 -10 47 0 80 4 80 10 0 6 -33 10 -80 10 -47
0 -80 -4 -80 -10z"/>
<path d="M270 200 c0 -5 23 -10 50 -10 28 0 50 5 50 10 0 6 -22 10 -50 10 -27
0 -50 -4 -50 -10z"/>
<path d="M810 200 c0 -6 37 -10 90 -10 53 0 90 4 90 10 0 6 -37 10 -90 10 -53
0 -90 -4 -90 -10z"/>
<path d="M150 160 c0 -5 23 -10 50 -10 28 0 50 5 50 10 0 6 -22 10 -50 10 -27
0 -50 -4 -50 -10z"/>
<path d="M290 160 c0 -6 43 -10 110 -10 67 0 110 4 110 10 0 6 -43 10 -110 10
-67 0 -110 -4 -110 -10z"/>
<path d="M570 160 c0 -6 43 -10 110 -10 67 0 110 4 110 10 0 6 -43 10 -110 10
-67 0 -110 -4 -110 -10z"/>
<path d="M850 160 c0 -6 53 -10 140 -10 87 0 140 4 140 10 0 6 -53 10 -140 10
-87 0 -140 -4 -140 -10z"/>
</g>
</svg>
